#!OML:ASF X:\2005_08_12_Meinard\c3d\meinard.ASF
:FULLY-SPECIFIED
:DEGREES
1
root 3.21944 16.5026 0.630277 133.283 -82.1284 -154.746
lowerback 32.689 -0.63198 2.01922
upperback 2.04222 -0.325868 0.865742
thorax -14.6818 -0.404544 0.0273279
lowerneck -17.0493 -1.64085 -2.95901
upperneck 9.25408 -2.36166 6.00889
head 5.6813 -0.805789 2.15753
rclavicle -6.19649e-015 -2.98177e-016
rhumerus -10.633 -23.1208 -0.600286
rradius 11.9496
rwrist 24.5702
rhand -0.920801 -13.2844
rfingers 7.12502
rthumb 24.7081 -41.7089
lclavicle -6.19649e-015 -2.98177e-016
lhumerus -16.9211 -29.5487 -9.11771
lradius 18.7533
lwrist -146.767
lhand 0.0353043 0.858759
lfingers 7.12502
lthumb 25.6242 29.1547
rfemur 12.7786 2.79645 16.8052
rtibia 33.6393
rfoot -19.7105 -21.4024
rtoes 8.94581
lfemur 11.1875 -7.86508 -16.0827
ltibia 40.548
lfoot -23.9134 32.5437
ltoes 12.8892
2
root 3.22046 16.5026 0.629732 133.282 -82.1283 -154.744
lowerback 32.6924 -0.629666 2.01163
upperback 2.04246 -0.325243 0.868419
thorax -14.683 -0.403767 0.0341265
lowerneck -17.0672 -1.64121 -2.97157
upperneck 9.27776 -2.36262 6.02715
head 5.69219 -0.804749 2.16539
rclavicle -7.237e-016 -4.37326e-015
rhumerus -10.6313 -23.2862 -0.608336
rradius 11.9114
rwrist 24.727
rhand -0.935137 -13.2634
rfingers 7.12502
rthumb 24.6944 -41.6899
lclavicle -7.237e-016 -4.37326e-015
lhumerus -16.9179 -29.5922 -9.10694
lradius 18.7385
lwrist -146.792
lhand -0.0121458 0.751623
lfingers 7.12502
lthumb 25.5787 29.054
rfemur 12.7705 2.76935 16.7941
rtibia 33.6434
rfoot -19.706 -21.3768
rtoes 8.95018
lfemur 11.1858 -7.85107 -16.0706
ltibia 40.5471
lfoot -23.9261 32.5277
ltoes 12.8238
3
root 3.22114 16.5019 0.629503 133.338 -82.1378 -154.805
lowerback 32.6915 -0.624456 2.01533
upperback 2.04323 -0.319796 0.850713
thorax -14.6817 -0.402014 0.0105351
lowerneck -17.093 -1.64886 -2.93065
upperneck 9.30537 -2.38041 6.00606
head 5.70523 -0.812755 2.15032
rclavicle 9.53235e-015 3.97569e-015
rhumerus -10.6979 -23.3192 -0.607204
rradius 11.9146
rwrist 24.7575
rhand -0.937696 -13.2529
rfingers 7.12502
rthumb 24.6919 -41.6796
lclavicle 9.53235e-015 3.97569e-015
lhumerus -16.8788 -29.5627 -9.12585
lradius 18.7321
lwrist -146.868
lhand -0.0201652 0.637767
lfingers 7.12502
lthumb 25.5711 28.9413
rfemur 12.7718 2.76692 16.779
rtibia 33.6453
rfoot -19.7029 -21.3765
rtoes 8.95369
lfemur 11.1909 -7.88189 -16.1033
ltibia 40.5461
lfoot -23.9304 32.559
ltoes 12.814
4
root 3.22221 16.5021 0.628918 133.307 -82.1618 -154.78
lowerback 32.7006 -0.630874 1.99793
upperback 2.04324 -0.334993 0.846556
thorax -14.6858 -0.407808 0.0218645
lowerneck -17.1014 -1.63983 -2.92023
upperneck 9.32659 -2.37009 5.99625
head 5.71255 -0.80765 2.14661
rclavicle 2.86436e-014 -1.70955e-014
rhumerus -10.6996 -23.4541 -0.62215
rradius 11.8954
rwrist 24.8905
rhand -0.939869 -13.2273
rfingers 7.12502
rthumb 24.6898 -41.6544
lclavicle 2.86436e-014 -1.70955e-014
lhumerus -16.8801 -29.554 -9.12246
lradius 18.7093
lwrist -146.904
lhand -0.0742131 0.542047
lfingers 7.12502
lthumb 25.5193 28.853
rfemur 12.7809 2.7798 16.7826
rtibia 33.6473
rfoot -19.7081 -21.4091
rtoes 8.8802
lfemur 11.187 -7.88659 -16.1087
ltibia 40.5444
lfoot -23.9148 32.544
ltoes 12.7575
5
root 3.22302 16.5022 0.628577 133.341 -82.1581 -154.814
lowerback 32.7055 -0.626609 1.99205
upperback 2.04051 -0.331298 0.846693
thorax -14.6911 -0.405793 0.0237161
lowerneck -17.1431 -1.64136 -2.93139
upperneck 9.36609 -2.37178 6.00423
head 5.73219 -0.807064 2.15093
rclavicle 9.46712e-015 -1.25234e-014
rhumerus -10.7097 -23.6364 -0.621865
rradius 11.8644
rwrist 25.0945
rhand -0.930781 -13.1993
rfingers 7.12502
rthumb 24.6986 -41.6252
lclavicle 9.46712e-015 -1.25234e-014
lhumerus -16.8832 -29.6014 -9.09972
lradius 18.6883
lwrist -146.883
lhand -0.0849295 0.482838
lfingers 7.12502
lthumb 25.509 28.7953
rfemur 12.7781 2.79112 16.7871
rtibia 33.6454
rfoot -19.7045 -21.4159
rtoes 8.87802
lfemur 11.1847 -7.88576 -16.11
ltibia 40.5465
lfoot -23.9152 32.5477
ltoes 12.7565
6
root 3.22384 16.5025 0.628119 133.306 -82.1625 -154.78
lowerback 32.713 -0.627599 1.9947
upperback 2.03478 -0.331269 0.844579
thorax -14.701 -0.405926 0.02007
lowerneck -17.1368 -1.64212 -2.93199
upperneck 9.36843 -2.37312 6.00597
head 5.732 -0.807674 2.15146
rclavicle -6.24308e-015 -2.94201e-014
rhumerus -10.7288 -23.6206 -0.626494
rradius 11.8316
rwrist 25.1048
rhand -0.957761 -13.1739
rfingers 7.12502
rthumb 24.6727 -41.6033
lclavicle -6.24308e-015 -2.94201e-014
lhumerus -16.8804 -29.6484 -9.08662
lradius 18.6715
lwrist -146.85
lhand -0.060041 0.401257
lfingers 7.12502
lthumb 25.5329 28.7103
rfemur 12.7748 2.76432 16.7781
rtibia 33.6454
rfoot -19.6957 -21.3948
rtoes 8.89614
lfemur 11.178 -7.88027 -16.0998
ltibia 40.547
lfoot -23.9058 32.5338
ltoes 12.761
7
root 3.22495 16.5019 0.627939 133.237 -82.1693 -154.714
lowerback 32.7184 -0.632001 1.99763
upperback 2.03509 -0.335731 0.845511
thorax -14.703 -0.408109 0.0214335
lowerneck -17.145 -1.64195 -2.94978
upperneck 9.3824 -2.37163 6.02279
head 5.73814 -0.806005 2.15993
rclavicle -1.39708e-014 5.86415e-015
rhumerus -10.7427 -23.7974 -0.61901
rradius 11.8062
rwrist 25.2779
rhand -0.935792 -13.1291
rfingers 7.12502
rthumb 24.6938 -41.5556
lclavicle -1.39708e-014 5.86415e-015
lhumerus -16.8907 -29.7409 -9.04638
lradius 18.6394
lwrist -146.734
lhand 0.00464936 0.338419
lfingers 7.12502
lthumb 25.5948 28.6385
rfemur 12.7798 2.76871 16.7906
rtibia 33.6441
rfoot -19.6921 -21.4151
rtoes 8.90352
lfemur 11.1716 -7.87969 -16.0886
ltibia 40.5503
lfoot -23.8961 32.5202
ltoes 12.7674
8
root 3.22566 16.5016 0.627189 133.281 -82.1732 -154.766
lowerback 32.7221 -0.624171 1.9919
upperback 2.03592 -0.329169 0.835686
thorax -14.7036 -0.40514 0.011121
lowerneck -17.1668 -1.64211 -2.93771
upperneck 9.41459 -2.3778 6.03561
head 5.75229 -0.806856 2.16156
rclavicle -8.57569e-015 3.29983e-014
rhumerus -10.8005 -23.9671 -0.611161
rradius 11.7949
rwrist 25.4692
rhand -0.927795 -13.1303
rfingers 7.12502
rthumb 24.7014 -41.5558
lclavicle -8.57569e-015 3.29983e-014
lhumerus -16.8769 -29.9435 -9.00753
lradius 18.6025
lwrist -146.529
lhand 0.0672563 0.30931
lfingers 7.12502
lthumb 25.6548 28.6008
rfemur 12.7872 2.78264 16.7912
rtibia 33.6434
rfoot -19.6925 -21.4276
rtoes 8.89999
lfemur 11.1808 -7.87254 -16.0931
ltibia 40.5519
lfoot -23.9092 32.5104
ltoes 12.7436
9
root 3.22664 16.5019 0.626834 133.268 -82.1829 -154.752
lowerback 32.7221 -0.625496 1.99224
upperback 2.03521 -0.331435 0.830438
thorax -14.7045 -0.406256 0.00616198
lowerneck -17.1754 -1.64254 -2.93564
upperneck 9.42943 -2.37821 6.02774
head 5.75827 -0.807211 2.15873
rclavicle -1.22315e-014 3.04141e-014
rhumerus -10.827 -24.0294 -0.620498
rradius 11.7773
rwrist 25.5262
rhand -0.91922 -13.1058
rfingers 7.12502
rthumb 24.7096 -41.5301
lclavicle -1.22315e-014 3.04141e-014
lhumerus -16.8737 -30.0019 -8.97837
lradius 18.5685
lwrist -146.431
lhand 0.131518 0.30287
lfingers 7.12502
lthumb 25.7163 28.5855
rfemur 12.7864 2.78737 16.7931
rtibia 33.6404
rfoot -19.6898 -21.4411
rtoes 8.89569
lfemur 11.1697 -7.86761 -16.0896
ltibia 40.5558
lfoot -23.9174 32.4972
ltoes 12.7409
10
root 3.22757 16.5022 0.626627 133.195 -82.1912 -154.674
lowerback 32.7287 -0.630397 1.99428
upperback 2.03145 -0.33637 0.83185
thorax -14.7117 -0.40849 0.00874697
lowerneck -17.2191 -1.64104 -2.94655
upperneck 9.46603 -2.37683 6.04288
head 5.7773 -0.804603 2.1656
rclavicle 1.37752e-014 1.26228e-014
rhumerus -10.8393 -24.1831 -0.617389
rradius 11.7486
rwrist 25.6989
rhand -0.909364 -13.0933
rfingers 7.12502
rthumb 24.7191 -41.5164
lclavicle 1.37752e-014 1.26228e-014
lhumerus -16.893 -30.0376 -8.94311
lradius 18.5559
lwrist -146.347
lhand 0.193433 0.286061
lfingers 7.12502
lthumb 25.7756 28.5601
rfemur 12.7787 2.74603 16.7811
rtibia 33.6405
rfoot -19.684 -21.4137
rtoes 8.9004
lfemur 11.1559 -7.8664 -16.0759
ltibia 40.5566
lfoot -23.9056 32.4816
ltoes 12.7482
11
root 3.22863 16.5017 0.625846 133.205 -82.191 -154.688
lowerback 32.7315 -0.626498 1.98418
upperback 2.03205 -0.334769 0.83379
thorax -14.7122 -0.407143 0.0156879
lowerneck -17.2325 -1.63772 -2.93796
upperneck 9.48505 -2.37361 6.03324
head 5.78512 -0.802963 2.16152
rclavicle -2.12979e-014 -8.24956e-015
rhumerus -10.854 -24.3179 -0.616715
rradius 11.7178
rwrist 25.8279
rhand -0.924343 -13.0848
rfingers 7.12502
rthumb 24.7047 -41.5098
lclavicle -2.12979e-014 -8.24956e-015
lhumerus -16.9052 -30.1401 -8.89424
lradius 18.517
lwrist -146.227
lhand 0.254009 0.292788
lfingers 7.12502
lthumb 25.8336 28.5584
rfemur 12.7815 2.76447 16.7934
rtibia 33.6363
rfoot -19.6774 -21.4368
rtoes 8.90766
lfemur 11.1527 -7.8642 -16.0724
ltibia 40.5603
lfoot -23.9083 32.4637
ltoes 12.7202
12
root 3.22915 16.5016 0.625416 133.203 -82.1996 -154.691
lowerback 32.7343 -0.633124 1.98965
upperback 2.03197 -0.343958 0.816115
thorax -14.7137 -0.412005 -0.00266651
lowerneck -17.2443 -1.63451 -2.91166
upperneck 9.49936 -2.37529 6.02766
head 5.79131 -0.802897 2.15534
rclavicle 8.51979e-015 2.33572e-014
rhumerus -10.894 -24.4738 -0.639119
rradius 11.7103
rwrist 25.9595
rhand -0.950392 -13.0678
rfingers 7.12502
rthumb 24.6798 -41.4963
lclavicle 8.51979e-015 2.33572e-014
lhumerus -16.9192 -30.0728 -8.89685
lradius 18.5195
lwrist -146.272
lhand 0.317325 0.297184
lfingers 7.12502
lthumb 25.8943 28.5539
rfemur 12.789 2.76944 16.7932
rtibia 33.6333
rfoot -19.6721 -21.4388
rtoes 8.92195
lfemur 11.1535 -7.86729 -16.0773
ltibia 40.5625
lfoot -23.9049 32.4608
ltoes 12.7224
13
root 3.23028 16.5019 0.625227 133.104 -82.212 -154.59
lowerback 32.7359 -0.64055 1.99405
upperback 2.03093 -0.351673 0.817
thorax -14.7157 -0.415635 -0.000838031
lowerneck -17.2677 -1.62948 -2.91064
upperneck 9.5285 -2.36972 6.02773
head 5.8041 -0.799362 2.15586
rclavicle 1.58189e-014 -9.0447e-015
rhumerus -10.9099 -24.4493 -0.659109
rradius 11.6893
rwrist 25.8808
rhand -1.01177 -13.0763
rfingers 7.12502
rthumb 24.6209 -41.5128
lclavicle 1.58189e-014 -9.0447e-015
lhumerus -16.9397 -30.3014 -8.82835
lradius 18.4837
lwrist -146.021
lhand 0.398541 0.344702
lfingers 7.12502
lthumb 25.9721 28.5901
rfemur 12.7909 2.76933 16.8055
rtibia 33.6287
rfoot -19.6699 -21.4588
rtoes 8.91673
lfemur 11.1395 -7.8718 -16.0656
ltibia 40.5669
lfoot -23.8938 32.4459
ltoes 12.7293
14
root 3.23134 16.5019 0.624399 133.126 -82.2173 -154.611
lowerback 32.74 -0.636875 1.97884
upperback 2.02525 -0.351539 0.819241
thorax -14.7241 -0.41446 0.00983289
lowerneck -17.275 -1.629 -2.91906
upperneck 9.55026 -2.36712 6.0227
head 5.81208 -0.798327 2.15598
rclavicle 2.01891e-016 -8.44835e-015
rhumerus -10.937 -24.601 -0.668006
rradius 11.6892
rwrist 25.9651
rhand -1.04904 -13.0712
rfingers 7.12502
rthumb 24.5852 -41.5125
lclavicle 2.01891e-016 -8.44835e-015
lhumerus -16.9605 -30.078 -8.82587
lradius 18.496
lwrist -146.21
lhand 0.390342 0.356623
lfingers 7.12502
lthumb 25.9642 28.6031
rfemur 12.789 2.76543 16.7966
rtibia 33.6293
rfoot -19.6876 -21.4398
rtoes 8.85322
lfemur 11.1301 -7.85438 -16.0556
ltibia 40.567
lfoot -23.8831 32.4246
ltoes 12.7371
15
root 3.23222 16.5015 0.62404 133.127 -82.2174 -154.612
lowerback 32.7483 -0.636002 1.98055
upperback 2.017 -0.349385 0.815961
thorax -14.7373 -0.413581 0.00455386
lowerneck -17.2526 -1.62709 -2.92805
upperneck 9.54551 -2.365 6.03911
head 5.80716 -0.796816 2.16291
rclavicle -2.13352e-014 1.3418e-014
rhumerus -10.9607 -24.5444 -0.689013
rradius 11.6769
rwrist 25.8921
rhand -1.08666 -13.0817
rfingers 7.12502
rthumb 24.5491 -41.528
lclavicle -2.13352e-014 1.3418e-014
lhumerus -16.9801 -30.2074 -8.77162
lradius 18.4699
lwrist -146.046
lhand 0.447107 0.408446
lfingers 7.12502
lthumb 26.0186 28.647
rfemur 12.7872 2.773 16.8025
rtibia 33.6278
rfoot -19.6805 -21.4518
rtoes 8.8634
lfemur 11.1292 -7.85344 -16.054
ltibia 40.569
lfoot -23.8899 32.4183
ltoes 12.722
